<svg width="495" height="1850" viewBox="0 0 495 1850" fill="none" xmlns="http://www.w3.org/2000/svg">
<ellipse cx="258.055" cy="102.544" rx="17.1429" ry="17.1429" transform="rotate(8 258.055 102.544)" fill="#3B82F6"/>
<path d="M328.003 97.5367C336.285 98.7006 342.056 106.358 340.892 114.64C339.728 122.921 332.07 128.692 323.788 127.528C315.506 126.364 309.736 118.706 310.9 110.425C312.064 102.143 319.721 96.373 328.003 97.5367Z" stroke="#3B82F6" stroke-width="4"/>
<path d="M395.908 107.08C404.19 108.244 409.96 115.901 408.797 124.183C407.633 132.465 399.975 138.236 391.693 137.072C383.411 135.908 377.641 128.25 378.805 119.968C379.969 111.686 387.626 105.916 395.908 107.08Z" stroke="#3B82F6" stroke-width="4"/>
<path d="M463.812 116.624C472.093 117.788 477.864 125.445 476.7 133.726C475.536 142.008 467.878 147.779 459.597 146.615C451.315 145.451 445.545 137.793 446.709 129.511C447.873 121.23 455.53 115.46 463.812 116.624Z" stroke="#3B82F6" stroke-width="4"/>
<ellipse cx="135.065" cy="983.362" rx="17.1429" ry="17.1429" transform="rotate(8 135.065 983.362)" fill="#3B82F6"/>
<path d="M205.013 978.355C213.295 979.519 219.066 987.176 217.902 995.457C216.738 1003.74 209.08 1009.51 200.798 1008.35C192.517 1007.18 186.747 999.524 187.911 991.242C189.075 982.961 196.732 977.191 205.013 978.355Z" stroke="#3B82F6" stroke-width="4"/>
<path d="M272.918 987.898C281.2 989.062 286.971 996.719 285.807 1005C284.643 1013.28 276.985 1019.05 268.703 1017.89C260.421 1016.73 254.652 1009.07 255.815 1000.79C256.979 992.504 264.637 986.734 272.918 987.898Z" stroke="#3B82F6" stroke-width="4"/>
<path d="M340.822 997.442C349.104 998.605 354.874 1006.26 353.711 1014.54C352.547 1022.83 344.889 1028.6 336.607 1027.43C328.325 1026.27 322.555 1018.61 323.719 1010.33C324.883 1002.05 332.54 996.278 340.822 997.442Z" stroke="#3B82F6" stroke-width="4"/>
<ellipse cx="228.427" cy="320.543" rx="17.1429" ry="17.1429" transform="rotate(8 228.427 320.543)" fill="#3B82F6"/>
<path d="M298.375 315.535C306.657 316.699 312.428 324.356 311.264 332.638C310.1 340.919 302.442 346.69 294.16 345.526C285.878 344.362 280.109 336.704 281.272 328.423C282.437 320.141 290.094 314.371 298.375 315.535Z" stroke="#3B82F6" stroke-width="4"/>
<path d="M366.28 325.078C374.562 326.242 380.332 333.899 379.169 342.181C378.005 350.463 370.347 356.234 362.065 355.07C353.783 353.906 348.013 346.248 349.177 337.966C350.341 329.684 357.998 323.914 366.28 325.078Z" stroke="#3B82F6" stroke-width="4"/>
<path d="M434.184 334.622C442.465 335.786 448.236 343.443 447.072 351.724C445.909 360.006 438.25 365.777 429.969 364.613C421.687 363.449 415.917 355.791 417.081 347.509C418.245 339.228 425.902 333.458 434.184 334.622Z" stroke="#3B82F6" stroke-width="4"/>
<ellipse cx="105.437" cy="1201.36" rx="17.1429" ry="17.1429" transform="rotate(8 105.437 1201.36)" fill="#3B82F6"/>
<path d="M175.385 1196.35C183.667 1197.52 189.438 1205.17 188.274 1213.46C187.11 1221.74 179.452 1227.51 171.17 1226.34C162.889 1225.18 157.119 1217.52 158.283 1209.24C159.447 1200.96 167.104 1195.19 175.385 1196.35Z" stroke="#3B82F6" stroke-width="4"/>
<path d="M243.29 1205.9C251.572 1207.06 257.343 1214.72 256.179 1223C255.015 1231.28 247.357 1237.05 239.075 1235.89C230.794 1234.72 225.024 1227.07 226.188 1218.78C227.352 1210.5 235.009 1204.73 243.29 1205.9Z" stroke="#3B82F6" stroke-width="4"/>
<path d="M311.194 1215.44C319.476 1216.6 325.246 1224.26 324.083 1232.54C322.919 1240.82 315.261 1246.59 306.979 1245.43C298.697 1244.27 292.927 1236.61 294.091 1228.33C295.255 1220.05 302.912 1214.28 311.194 1215.44Z" stroke="#3B82F6" stroke-width="4"/>
<ellipse cx="197.808" cy="538.401" rx="17.1429" ry="17.1429" transform="rotate(8 197.808 538.401)" fill="#3B82F6"/>
<path d="M267.757 533.394C276.039 534.558 281.809 542.215 280.646 550.496C279.482 558.778 271.824 564.549 263.542 563.385C255.26 562.221 249.49 554.563 250.654 546.281C251.818 538 259.475 532.23 267.757 533.394Z" stroke="#3B82F6" stroke-width="4"/>
<path d="M335.662 542.937C343.943 544.101 349.714 551.758 348.55 560.04C347.387 568.322 339.729 574.092 331.447 572.929C323.165 571.764 317.395 564.107 318.559 555.825C319.723 547.543 327.38 541.773 335.662 542.937Z" stroke="#3B82F6" stroke-width="4"/>
<path d="M403.566 552.481C411.847 553.644 417.618 561.302 416.454 569.583C415.29 577.865 407.632 583.636 399.351 582.472C391.069 581.308 385.299 573.65 386.463 565.368C387.627 557.087 395.284 551.317 403.566 552.481Z" stroke="#3B82F6" stroke-width="4"/>
<ellipse cx="74.8187" cy="1419.22" rx="17.1429" ry="17.1429" transform="rotate(8 74.8187 1419.22)" fill="#3B82F6"/>
<path d="M144.767 1414.21C153.049 1415.38 158.82 1423.03 157.656 1431.31C156.492 1439.6 148.834 1445.37 140.552 1444.2C132.271 1443.04 126.501 1435.38 127.665 1427.1C128.829 1418.82 136.486 1413.05 144.767 1414.21Z" stroke="#3B82F6" stroke-width="4"/>
<path d="M212.672 1423.75C220.954 1424.92 226.725 1432.58 225.561 1440.86C224.397 1449.14 216.739 1454.91 208.457 1453.75C200.175 1452.58 194.405 1444.92 195.569 1436.64C196.733 1428.36 204.39 1422.59 212.672 1423.75Z" stroke="#3B82F6" stroke-width="4"/>
<path d="M280.576 1433.3C288.858 1434.46 294.628 1442.12 293.465 1450.4C292.301 1458.68 284.643 1464.45 276.361 1463.29C268.079 1462.13 262.309 1454.47 263.473 1446.19C264.637 1437.9 272.294 1432.13 280.576 1433.3Z" stroke="#3B82F6" stroke-width="4"/>
<ellipse cx="167.19" cy="756.26" rx="17.1429" ry="17.1429" transform="rotate(8 167.19 756.26)" fill="#3B82F6"/>
<path d="M237.139 751.253C245.421 752.416 251.191 760.074 250.028 768.355C248.864 776.637 241.206 782.408 232.924 781.244C224.642 780.08 218.872 772.422 220.036 764.14C221.2 755.859 228.857 750.089 237.139 751.253Z" stroke="#3B82F6" stroke-width="4"/>
<path d="M305.044 760.796C313.325 761.96 319.096 769.617 317.932 777.899C316.768 786.181 309.11 791.951 300.829 790.787C292.547 789.623 286.777 781.965 287.941 773.684C289.105 765.402 296.762 759.632 305.044 760.796Z" stroke="#3B82F6" stroke-width="4"/>
<path d="M372.947 770.339C381.229 771.503 387 779.161 385.836 787.442C384.672 795.724 377.014 801.495 368.732 800.331C360.451 799.167 354.681 791.509 355.845 783.227C357.009 774.946 364.666 769.176 372.947 770.339Z" stroke="#3B82F6" stroke-width="4"/>
<ellipse cx="44.2006" cy="1637.08" rx="17.1429" ry="17.1429" transform="rotate(8 44.2006 1637.08)" fill="#3B82F6"/>
<path d="M114.149 1632.07C122.431 1633.23 128.202 1640.89 127.038 1649.17C125.874 1657.45 118.216 1663.23 109.934 1662.06C101.652 1660.9 95.8825 1653.24 97.0464 1644.96C98.2105 1636.68 105.867 1630.91 114.149 1632.07Z" stroke="#3B82F6" stroke-width="4"/>
<path d="M182.054 1641.61C190.336 1642.78 196.106 1650.43 194.943 1658.72C193.779 1667 186.121 1672.77 177.839 1671.61C169.557 1670.44 163.787 1662.78 164.951 1654.5C166.115 1646.22 173.772 1640.45 182.054 1641.61Z" stroke="#3B82F6" stroke-width="4"/>
<path d="M249.958 1651.16C258.239 1652.32 264.01 1659.98 262.846 1668.26C261.682 1676.54 254.024 1682.31 245.743 1681.15C237.461 1679.98 231.691 1672.33 232.855 1664.05C234.019 1655.76 241.676 1649.99 249.958 1651.16Z" stroke="#3B82F6" stroke-width="4"/>
<path d="M252.491 142.125C260.773 143.289 266.544 150.946 265.38 159.227C264.216 167.509 256.558 173.28 248.276 172.116C239.995 170.952 234.225 163.294 235.389 155.012C236.553 146.731 244.21 140.961 252.491 142.125Z" stroke="#3B82F6" stroke-width="4"/>
<ellipse cx="318.225" cy="167.108" rx="17.1429" ry="17.1429" transform="rotate(8 318.225 167.108)" fill="#3B82F6"/>
<path d="M388.237 161.656C396.519 162.82 402.29 170.477 401.126 178.759C399.962 187.04 392.304 192.811 384.022 191.647C375.741 190.483 369.971 182.825 371.135 174.544C372.299 166.262 379.956 160.492 388.237 161.656Z" stroke="#3B82F6" stroke-width="4"/>
<path d="M456.141 171.199C464.423 172.363 470.194 180.02 469.03 188.302C467.866 196.584 460.208 202.355 451.926 201.191C443.645 200.027 437.875 192.369 439.039 184.087C440.203 175.806 447.86 170.036 456.141 171.199Z" stroke="#3B82F6" stroke-width="4"/>
<path d="M129.502 1022.94C137.783 1024.11 143.554 1031.76 142.39 1040.05C141.226 1048.33 133.568 1054.1 125.287 1052.93C117.005 1051.77 111.235 1044.11 112.399 1035.83C113.563 1027.55 121.22 1021.78 129.502 1022.94Z" stroke="#3B82F6" stroke-width="4"/>
<ellipse cx="195.236" cy="1047.93" rx="17.1429" ry="17.1429" transform="rotate(8 195.236 1047.93)" fill="#3B82F6"/>
<path d="M265.248 1042.47C273.529 1043.64 279.3 1051.29 278.136 1059.58C276.973 1067.86 269.314 1073.63 261.033 1072.47C252.751 1071.3 246.981 1063.64 248.145 1055.36C249.309 1047.08 256.966 1041.31 265.248 1042.47Z" stroke="#3B82F6" stroke-width="4"/>
<path d="M333.152 1052.02C341.433 1053.18 347.204 1060.84 346.04 1069.12C344.876 1077.4 337.218 1083.17 328.936 1082.01C320.655 1080.84 314.885 1073.19 316.049 1064.9C317.213 1056.62 324.87 1050.85 333.152 1052.02Z" stroke="#3B82F6" stroke-width="4"/>
<path d="M222.864 360.123C231.146 361.287 236.916 368.944 235.753 377.225C234.589 385.507 226.931 391.278 218.649 390.114C210.367 388.95 204.597 381.292 205.761 373.01C206.925 364.729 214.582 358.959 222.864 360.123Z" stroke="#3B82F6" stroke-width="4"/>
<ellipse cx="288.598" cy="385.106" rx="17.1429" ry="17.1429" transform="rotate(8 288.598 385.106)" fill="#3B82F6"/>
<path d="M358.61 379.654C366.892 380.818 372.663 388.475 371.499 396.757C370.335 405.038 362.677 410.809 354.395 409.645C346.113 408.481 340.343 400.823 341.507 392.542C342.671 384.26 350.328 378.49 358.61 379.654Z" stroke="#3B82F6" stroke-width="4"/>
<path d="M426.514 389.197C434.796 390.361 440.566 398.018 439.403 406.3C438.239 414.582 430.581 420.353 422.299 419.189C414.017 418.025 408.247 410.367 409.411 402.085C410.575 393.804 418.232 388.034 426.514 389.197Z" stroke="#3B82F6" stroke-width="4"/>
<path d="M99.8742 1240.94C108.156 1242.1 113.927 1249.76 112.763 1258.04C111.599 1266.33 103.941 1272.1 95.6591 1270.93C87.3775 1269.77 81.6076 1262.11 82.7715 1253.83C83.9356 1245.55 91.5926 1239.78 99.8742 1240.94Z" stroke="#3B82F6" stroke-width="4"/>
<ellipse cx="165.608" cy="1265.92" rx="17.1429" ry="17.1429" transform="rotate(8 165.608 1265.92)" fill="#3B82F6"/>
<path d="M235.62 1260.47C243.902 1261.64 249.673 1269.29 248.509 1277.57C247.345 1285.86 239.687 1291.63 231.405 1290.46C223.124 1289.3 217.354 1281.64 218.518 1273.36C219.682 1265.08 227.339 1259.31 235.62 1260.47Z" stroke="#3B82F6" stroke-width="4"/>
<path d="M303.524 1270.02C311.806 1271.18 317.577 1278.84 316.413 1287.12C315.249 1295.4 307.591 1301.17 299.309 1300.01C291.027 1298.84 285.257 1291.18 286.421 1282.9C287.585 1274.62 295.242 1268.85 303.524 1270.02Z" stroke="#3B82F6" stroke-width="4"/>
<path d="M192.246 577.982C200.527 579.146 206.298 586.803 205.134 595.085C203.971 603.367 196.313 609.137 188.031 607.973C179.749 606.809 173.979 599.152 175.143 590.87C176.307 582.588 183.964 576.818 192.246 577.982Z" stroke="#3B82F6" stroke-width="4"/>
<ellipse cx="257.98" cy="602.965" rx="17.1429" ry="17.1429" transform="rotate(8 257.98 602.965)" fill="#3B82F6"/>
<path d="M327.992 597.513C336.274 598.677 342.044 606.334 340.881 614.616C339.717 622.898 332.059 628.669 323.777 627.505C315.495 626.341 309.725 618.683 310.889 610.401C312.053 602.12 319.71 596.35 327.992 597.513Z" stroke="#3B82F6" stroke-width="4"/>
<path d="M395.896 607.057C404.177 608.221 409.948 615.878 408.784 624.16C407.62 632.441 399.962 638.212 391.681 637.048C383.399 635.884 377.629 628.226 378.793 619.945C379.957 611.663 387.614 605.893 395.896 607.057Z" stroke="#3B82F6" stroke-width="4"/>
<path d="M69.256 1458.8C77.5377 1459.96 83.3085 1467.62 82.1447 1475.9C80.9808 1484.18 73.3228 1489.96 65.041 1488.79C56.7593 1487.63 50.9894 1479.97 52.1533 1471.69C53.3174 1463.41 60.9744 1457.64 69.256 1458.8Z" stroke="#3B82F6" stroke-width="4"/>
<ellipse cx="134.99" cy="1483.78" rx="17.1429" ry="17.1429" transform="rotate(8 134.99 1483.78)" fill="#3B82F6"/>
<path d="M205.002 1478.33C213.284 1479.5 219.055 1487.15 217.891 1495.43C216.727 1503.72 209.069 1509.49 200.787 1508.32C192.505 1507.16 186.736 1499.5 187.899 1491.22C189.063 1482.94 196.721 1477.17 205.002 1478.33Z" stroke="#3B82F6" stroke-width="4"/>
<path d="M272.906 1487.87C281.188 1489.04 286.958 1496.7 285.795 1504.98C284.631 1513.26 276.973 1519.03 268.691 1517.87C260.409 1516.7 254.639 1509.04 255.803 1500.76C256.967 1492.48 264.624 1486.71 272.906 1487.87Z" stroke="#3B82F6" stroke-width="4"/>
<path d="M161.628 795.841C169.909 797.005 175.68 804.662 174.516 812.944C173.352 821.225 165.694 826.996 157.413 825.832C149.131 824.668 143.361 817.01 144.525 808.729C145.689 800.447 153.346 794.677 161.628 795.841Z" stroke="#3B82F6" stroke-width="4"/>
<ellipse cx="227.362" cy="820.824" rx="17.1429" ry="17.1429" transform="rotate(8 227.362 820.824)" fill="#3B82F6"/>
<path d="M297.374 815.372C305.655 816.536 311.426 824.193 310.262 832.475C309.098 840.757 301.44 846.528 293.159 845.364C284.877 844.2 279.107 836.542 280.271 828.26C281.435 819.978 289.092 814.208 297.374 815.372Z" stroke="#3B82F6" stroke-width="4"/>
<path d="M365.277 824.916C373.559 826.08 379.33 833.737 378.166 842.018C377.002 850.3 369.344 856.071 361.062 854.907C352.781 853.743 347.011 846.085 348.175 837.803C349.339 829.522 356.996 823.752 365.277 824.916Z" stroke="#3B82F6" stroke-width="4"/>
<path d="M38.6378 1676.66C46.9195 1677.82 52.6903 1685.48 51.5266 1693.76C50.3626 1702.04 42.7046 1707.81 34.4228 1706.65C26.1412 1705.49 20.3713 1697.83 21.5352 1689.55C22.6992 1681.27 30.3562 1675.5 38.6378 1676.66Z" stroke="#3B82F6" stroke-width="4"/>
<ellipse cx="104.372" cy="1701.64" rx="17.1429" ry="17.1429" transform="rotate(8 104.372 1701.64)" fill="#3B82F6"/>
<path d="M174.384 1696.19C182.666 1697.35 188.436 1705.01 187.273 1713.29C186.109 1721.57 178.451 1727.35 170.169 1726.18C161.887 1725.02 156.117 1717.36 157.281 1709.08C158.445 1700.8 166.102 1695.03 174.384 1696.19Z" stroke="#3B82F6" stroke-width="4"/>
<path d="M242.288 1705.73C250.569 1706.9 256.34 1714.55 255.176 1722.84C254.013 1731.12 246.355 1736.89 238.073 1735.72C229.791 1734.56 224.021 1726.9 225.185 1718.62C226.349 1710.34 234.006 1704.57 242.288 1705.73Z" stroke="#3B82F6" stroke-width="4"/>
<path d="M244.829 196.65C253.11 197.813 258.881 205.471 257.717 213.752C256.554 222.034 248.896 227.805 240.614 226.641C232.332 225.477 226.562 217.819 227.726 209.537C228.89 201.256 236.547 195.486 244.829 196.65Z" stroke="#3B82F6" stroke-width="4"/>
<ellipse cx="377.324" cy="231.098" rx="17.1429" ry="17.1429" transform="rotate(8 377.324 231.098)" fill="#3B82F6"/>
<path d="M312.093 206.639C320.375 207.803 326.145 215.46 324.982 223.742C323.818 232.023 316.16 237.794 307.878 236.63C299.596 235.466 293.826 227.808 294.99 219.527C296.154 211.245 303.811 205.475 312.093 206.639Z" stroke="#3B82F6" stroke-width="4"/>
<path d="M448.479 225.724C456.76 226.888 462.531 234.545 461.367 242.827C460.203 251.109 452.545 256.88 444.264 255.716C435.982 254.552 430.212 246.894 431.376 238.612C432.54 230.33 440.197 224.56 448.479 225.724Z" stroke="#3B82F6" stroke-width="4"/>
<path d="M121.839 1077.47C130.121 1078.63 135.892 1086.29 134.728 1094.57C133.564 1102.85 125.906 1108.62 117.624 1107.46C109.342 1106.29 103.572 1098.64 104.736 1090.36C105.9 1082.07 113.557 1076.3 121.839 1077.47Z" stroke="#3B82F6" stroke-width="4"/>
<ellipse cx="254.334" cy="1111.92" rx="17.1429" ry="17.1429" transform="rotate(8 254.334 1111.92)" fill="#3B82F6"/>
<path d="M189.103 1087.46C197.385 1088.62 203.156 1096.28 201.992 1104.56C200.828 1112.84 193.17 1118.61 184.888 1117.45C176.607 1116.28 170.837 1108.63 172.001 1100.34C173.165 1092.06 180.822 1086.29 189.103 1087.46Z" stroke="#3B82F6" stroke-width="4"/>
<path d="M325.489 1106.54C333.771 1107.71 339.541 1115.36 338.378 1123.64C337.214 1131.93 329.556 1137.7 321.274 1136.53C312.992 1135.37 307.222 1127.71 308.386 1119.43C309.55 1111.15 317.207 1105.38 325.489 1106.54Z" stroke="#3B82F6" stroke-width="4"/>
<path d="M215.201 414.648C223.483 415.811 229.253 423.469 228.09 431.75C226.926 440.032 219.268 445.803 210.986 444.639C202.704 443.475 196.934 435.817 198.098 427.535C199.262 419.254 206.919 413.484 215.201 414.648Z" stroke="#3B82F6" stroke-width="4"/>
<ellipse cx="347.696" cy="449.096" rx="17.1429" ry="17.1429" transform="rotate(8 347.696 449.096)" fill="#3B82F6"/>
<path d="M282.465 424.637C290.747 425.801 296.517 433.458 295.354 441.74C294.19 450.021 286.532 455.792 278.25 454.628C269.968 453.464 264.198 445.806 265.362 437.525C266.526 429.243 274.183 423.473 282.465 424.637Z" stroke="#3B82F6" stroke-width="4"/>
<path d="M418.851 443.722C427.132 444.886 432.903 452.543 431.739 460.825C430.576 469.107 422.917 474.878 414.636 473.714C406.354 472.55 400.584 464.892 401.748 456.61C402.912 448.329 410.569 442.559 418.851 443.722Z" stroke="#3B82F6" stroke-width="4"/>
<path d="M92.2111 1295.47C100.493 1296.63 106.264 1304.29 105.1 1312.57C103.936 1320.85 96.2778 1326.62 87.9961 1325.46C79.7144 1324.29 73.9445 1316.63 75.1084 1308.35C76.2725 1300.07 83.9295 1294.3 92.2111 1295.47Z" stroke="#3B82F6" stroke-width="4"/>
<ellipse cx="224.706" cy="1329.91" rx="17.1429" ry="17.1429" transform="rotate(8 224.706 1329.91)" fill="#3B82F6"/>
<path d="M159.475 1305.45C167.757 1306.62 173.528 1314.28 172.364 1322.56C171.2 1330.84 163.542 1336.61 155.26 1335.45C146.979 1334.28 141.209 1326.62 142.373 1318.34C143.537 1310.06 151.194 1304.29 159.475 1305.45Z" stroke="#3B82F6" stroke-width="4"/>
<path d="M295.861 1324.54C304.143 1325.7 309.913 1333.36 308.75 1341.64C307.586 1349.92 299.928 1355.7 291.646 1354.53C283.364 1353.37 277.594 1345.71 278.758 1337.43C279.922 1329.15 287.579 1323.38 295.861 1324.54Z" stroke="#3B82F6" stroke-width="4"/>
<path d="M184.583 632.506C192.864 633.67 198.635 641.328 197.471 649.609C196.307 657.891 188.649 663.662 180.368 662.498C172.086 661.334 166.316 653.676 167.48 645.394C168.644 637.113 176.301 631.343 184.583 632.506Z" stroke="#3B82F6" stroke-width="4"/>
<ellipse cx="317.078" cy="666.955" rx="17.1429" ry="17.1429" transform="rotate(8 317.078 666.955)" fill="#3B82F6"/>
<path d="M251.847 642.496C260.129 643.66 265.899 651.317 264.736 659.599C263.572 667.88 255.914 673.651 247.632 672.487C239.35 671.323 233.58 663.665 234.744 655.383C235.908 647.102 243.565 641.332 251.847 642.496Z" stroke="#3B82F6" stroke-width="4"/>
<path d="M388.233 661.581C396.514 662.745 402.285 670.402 401.121 678.684C399.957 686.966 392.299 692.736 384.018 691.573C375.736 690.408 369.966 682.751 371.13 674.469C372.294 666.187 379.951 660.417 388.233 661.581Z" stroke="#3B82F6" stroke-width="4"/>
<path d="M61.5929 1513.32C69.8746 1514.49 75.6454 1522.15 74.4816 1530.43C73.3177 1538.71 65.6597 1544.48 57.3779 1543.32C49.0963 1542.15 43.3263 1534.49 44.4903 1526.21C45.6543 1517.93 53.3113 1512.16 61.5929 1513.32Z" stroke="#3B82F6" stroke-width="4"/>
<ellipse cx="194.088" cy="1547.77" rx="17.1429" ry="17.1429" transform="rotate(8 194.088 1547.77)" fill="#3B82F6"/>
<path d="M128.857 1523.31C137.139 1524.48 142.91 1532.13 141.746 1540.42C140.582 1548.7 132.924 1554.47 124.642 1553.3C116.36 1552.14 110.591 1544.48 111.754 1536.2C112.918 1527.92 120.575 1522.15 128.857 1523.31Z" stroke="#3B82F6" stroke-width="4"/>
<path d="M265.243 1542.4C273.525 1543.56 279.295 1551.22 278.132 1559.5C276.968 1567.78 269.31 1573.55 261.028 1572.39C252.746 1571.23 246.976 1563.57 248.14 1555.29C249.304 1547.01 256.961 1541.24 265.243 1542.4Z" stroke="#3B82F6" stroke-width="4"/>
<path d="M153.964 850.366C162.246 851.53 168.017 859.187 166.853 867.469C165.689 875.75 158.031 881.521 149.749 880.357C141.468 879.193 135.698 871.535 136.862 863.254C138.026 854.972 145.683 849.202 153.964 850.366Z" stroke="#3B82F6" stroke-width="4"/>
<ellipse cx="286.46" cy="884.814" rx="17.1429" ry="17.1429" transform="rotate(8 286.46 884.814)" fill="#3B82F6"/>
<path d="M221.229 860.355C229.51 861.519 235.281 869.176 234.117 877.458C232.953 885.74 225.295 891.51 217.014 890.346C208.732 889.182 202.962 881.525 204.126 873.243C205.29 864.961 212.947 859.191 221.229 860.355Z" stroke="#3B82F6" stroke-width="4"/>
<path d="M357.614 879.441C365.896 880.604 371.667 888.262 370.503 896.543C369.339 904.825 361.681 910.596 353.399 909.432C345.118 908.268 339.348 900.61 340.512 892.328C341.676 884.047 349.333 878.277 357.614 879.441Z" stroke="#3B82F6" stroke-width="4"/>
<path d="M30.9747 1731.18C39.2564 1732.35 45.0272 1740 43.8635 1748.29C42.6996 1756.57 35.0415 1762.34 26.7597 1761.18C18.4781 1760.01 12.7082 1752.35 13.8721 1744.07C15.0361 1735.79 22.6932 1730.02 30.9747 1731.18Z" stroke="#3B82F6" stroke-width="4"/>
<ellipse cx="163.47" cy="1765.63" rx="17.1429" ry="17.1429" transform="rotate(8 163.47 1765.63)" fill="#3B82F6"/>
<path d="M98.2389 1741.17C106.521 1742.34 112.291 1749.99 111.128 1758.28C109.964 1766.56 102.306 1772.33 94.0239 1771.16C85.7423 1770 79.9723 1762.34 81.1363 1754.06C82.3003 1745.78 89.9573 1740.01 98.2389 1741.17Z" stroke="#3B82F6" stroke-width="4"/>
<path d="M234.625 1760.26C242.906 1761.42 248.677 1769.08 247.513 1777.36C246.349 1785.64 238.691 1791.41 230.41 1790.25C222.128 1789.09 216.358 1781.43 217.522 1773.15C218.686 1764.86 226.343 1759.09 234.625 1760.26Z" stroke="#3B82F6" stroke-width="4"/>
<path d="M237.237 251.03C245.547 252.197 251.337 259.88 250.169 268.19C249.002 276.499 241.318 282.289 233.008 281.122C224.699 279.954 218.91 272.27 220.077 263.961C221.245 255.651 228.928 249.862 237.237 251.03Z" stroke="#3B82F6" stroke-width="4"/>
<ellipse cx="437.739" cy="294.551" rx="17.1938" ry="17.1938" transform="rotate(8 437.739 294.551)" fill="#3B82F6"/>
<path d="M304.702 261.049C313.011 262.217 318.801 269.899 317.634 278.209C316.466 286.518 308.782 292.308 300.473 291.141C292.163 289.973 286.374 282.289 287.542 273.98C288.71 265.67 296.392 259.881 304.702 261.049Z" stroke="#3B82F6" stroke-width="4"/>
<path d="M372.314 270.014C380.624 271.181 386.414 278.864 385.246 287.174C384.078 295.483 376.395 301.273 368.085 300.105C359.776 298.937 353.986 291.254 355.154 282.945C356.322 274.635 364.005 268.846 372.314 270.014Z" stroke="#3B82F6" stroke-width="4"/>
<path d="M114.248 1131.85C122.557 1133.02 128.347 1140.7 127.18 1149.01C126.012 1157.32 118.328 1163.11 110.019 1161.94C101.709 1160.77 95.9199 1153.09 97.0877 1144.78C98.2557 1136.47 105.938 1130.68 114.248 1131.85Z" stroke="#3B82F6" stroke-width="4"/>
<ellipse cx="314.749" cy="1175.37" rx="17.1938" ry="17.1938" transform="rotate(8 314.749 1175.37)" fill="#3B82F6"/>
<path d="M181.712 1141.87C190.022 1143.03 195.812 1150.72 194.644 1159.03C193.476 1167.34 185.793 1173.13 177.483 1171.96C169.173 1170.79 163.384 1163.11 164.552 1154.8C165.72 1146.49 173.403 1140.7 181.712 1141.87Z" stroke="#3B82F6" stroke-width="4"/>
<path d="M249.324 1150.83C257.634 1152 263.424 1159.68 262.256 1167.99C261.088 1176.3 253.405 1182.09 245.095 1180.92C236.786 1179.76 230.997 1172.07 232.164 1163.76C233.332 1155.45 241.015 1149.66 249.324 1150.83Z" stroke="#3B82F6" stroke-width="4"/>
<path d="M207.61 469.028C215.919 470.196 221.709 477.878 220.541 486.188C219.374 494.497 211.69 500.287 203.38 499.12C195.071 497.952 189.282 490.268 190.449 481.959C191.618 473.649 199.3 467.86 207.61 469.028Z" stroke="#3B82F6" stroke-width="4"/>
<ellipse cx="408.111" cy="512.549" rx="17.1938" ry="17.1938" transform="rotate(8 408.111 512.549)" fill="#3B82F6"/>
<path d="M275.074 479.047C283.383 480.215 289.173 487.897 288.006 496.207C286.838 504.517 279.154 510.307 270.845 509.139C262.535 507.971 256.746 500.287 257.914 491.978C259.082 483.668 266.765 477.879 275.074 479.047Z" stroke="#3B82F6" stroke-width="4"/>
<path d="M342.686 488.012C350.996 489.179 356.786 496.862 355.618 505.172C354.45 513.481 346.767 519.271 338.457 518.104C330.148 516.935 324.358 509.252 325.526 500.943C326.694 492.633 334.377 486.844 342.686 488.012Z" stroke="#3B82F6" stroke-width="4"/>
<path d="M84.6198 1349.85C92.9293 1351.01 98.7193 1358.7 97.5517 1367.01C96.3839 1375.32 88.7003 1381.11 80.3906 1379.94C72.0812 1378.77 66.2919 1371.09 67.4598 1362.78C68.6278 1354.47 76.3104 1348.68 84.6198 1349.85Z" stroke="#3B82F6" stroke-width="4"/>
<ellipse cx="285.121" cy="1393.37" rx="17.1938" ry="17.1938" transform="rotate(8 285.121 1393.37)" fill="#3B82F6"/>
<path d="M152.084 1359.86C160.394 1361.03 166.184 1368.72 165.016 1377.02C163.848 1385.33 156.165 1391.12 147.855 1389.96C139.546 1388.79 133.756 1381.11 134.924 1372.8C136.092 1364.49 143.775 1358.7 152.084 1359.86Z" stroke="#3B82F6" stroke-width="4"/>
<path d="M219.696 1368.83C228.006 1370 233.796 1377.68 232.628 1385.99C231.461 1394.3 223.777 1400.09 215.467 1398.92C207.158 1397.75 201.369 1390.07 202.536 1381.76C203.704 1373.45 211.387 1367.66 219.696 1368.83Z" stroke="#3B82F6" stroke-width="4"/>
<path d="M176.991 686.887C185.301 688.054 191.091 695.737 189.923 704.047C188.755 712.356 181.072 718.146 172.762 716.979C164.453 715.81 158.664 708.127 159.831 699.818C160.999 691.508 168.682 685.719 176.991 686.887Z" stroke="#3B82F6" stroke-width="4"/>
<ellipse cx="377.492" cy="730.408" rx="17.1938" ry="17.1938" transform="rotate(8 377.492 730.408)" fill="#3B82F6"/>
<path d="M244.456 696.906C252.765 698.073 258.555 705.756 257.388 714.066C256.22 722.375 248.536 728.165 240.227 726.998C231.917 725.83 226.128 718.146 227.296 709.837C228.464 701.527 236.146 695.738 244.456 696.906Z" stroke="#3B82F6" stroke-width="4"/>
<path d="M312.068 705.87C320.378 707.038 326.168 714.721 325 723.031C323.832 731.34 316.149 737.13 307.839 735.962C299.529 734.794 293.74 727.111 294.908 718.801C296.076 710.492 303.759 704.703 312.068 705.87Z" stroke="#3B82F6" stroke-width="4"/>
<path d="M54.0016 1567.7C62.3111 1568.87 68.1011 1576.56 66.9336 1584.86C65.7657 1593.17 58.0821 1598.96 49.7724 1597.8C41.463 1596.63 35.6738 1588.94 36.8416 1580.64C38.0096 1572.33 45.6923 1566.54 54.0016 1567.7Z" stroke="#3B82F6" stroke-width="4"/>
<ellipse cx="254.503" cy="1611.23" rx="17.1938" ry="17.1938" transform="rotate(8 254.503 1611.23)" fill="#3B82F6"/>
<path d="M121.466 1577.72C129.775 1578.89 135.565 1586.57 134.398 1594.88C133.23 1603.19 125.546 1608.98 117.237 1607.82C108.927 1606.65 103.138 1598.96 104.306 1590.65C105.474 1582.35 113.157 1576.56 121.466 1577.72Z" stroke="#3B82F6" stroke-width="4"/>
<path d="M189.078 1586.69C197.388 1587.86 203.178 1595.54 202.01 1603.85C200.842 1612.16 193.159 1617.95 184.849 1616.78C176.54 1615.61 170.75 1607.93 171.918 1599.62C173.086 1591.31 180.769 1585.52 189.078 1586.69Z" stroke="#3B82F6" stroke-width="4"/>
<path d="M146.373 904.745C154.683 905.913 160.473 913.596 159.305 921.906C158.137 930.215 150.454 936.005 142.144 934.837C133.835 933.669 128.045 925.986 129.213 917.676C130.381 909.367 138.064 903.578 146.373 904.745Z" stroke="#3B82F6" stroke-width="4"/>
<ellipse cx="346.874" cy="948.267" rx="17.1938" ry="17.1938" transform="rotate(8 346.874 948.267)" fill="#3B82F6"/>
<path d="M213.838 914.765C222.147 915.932 227.937 923.615 226.769 931.925C225.602 940.234 217.918 946.024 209.608 944.856C201.299 943.688 195.51 936.005 196.678 927.695C197.846 919.386 205.528 913.597 213.838 914.765Z" stroke="#3B82F6" stroke-width="4"/>
<path d="M281.45 923.729C289.759 924.897 295.549 932.58 294.382 940.889C293.214 949.199 285.53 954.989 277.221 953.821C268.911 952.653 263.122 944.97 264.29 936.66C265.458 928.351 273.141 922.562 281.45 923.729Z" stroke="#3B82F6" stroke-width="4"/>
<path d="M23.3834 1785.56C31.6929 1786.73 37.483 1794.41 36.3154 1802.72C35.1475 1811.03 27.4639 1816.82 19.1543 1815.66C10.8449 1814.49 5.0556 1806.8 6.22343 1798.49C7.39146 1790.19 15.0741 1784.4 23.3834 1785.56Z" stroke="#3B82F6" stroke-width="4"/>
<ellipse cx="223.885" cy="1829.08" rx="17.1938" ry="17.1938" transform="rotate(8 223.885 1829.08)" fill="#3B82F6"/>
<path d="M90.8478 1795.58C99.1573 1796.75 104.947 1804.43 103.78 1812.74C102.612 1821.05 94.9283 1826.84 86.6186 1825.67C78.3092 1824.51 72.52 1816.82 73.6878 1808.51C74.8558 1800.2 82.5385 1794.41 90.8478 1795.58Z" stroke="#3B82F6" stroke-width="4"/>
<path d="M158.46 1804.55C166.77 1805.72 172.56 1813.4 171.392 1821.71C170.224 1830.02 162.541 1835.81 154.231 1834.64C145.922 1833.47 140.132 1825.79 141.3 1817.48C142.468 1809.17 150.151 1803.38 158.46 1804.55Z" stroke="#3B82F6" stroke-width="4"/>
<path d="M250.813 40.7928L268.006 13.5201L273.33 14.2683L282.381 45.2293L276.725 44.4344L269.142 16.6062L271.304 16.9102L256.386 41.576L250.813 40.7928ZM257.791 34.9025L259.843 30.8648L275.564 33.0743L276.424 37.5212L257.791 34.9025Z" fill="#3B82F6"/>
<path d="M322.885 50.9219L326.977 21.808L349.644 24.9937L349.019 29.4439L331.675 27.0064L330.67 34.1601L339.279 35.3701C342.773 35.8611 345.317 36.968 346.913 38.6909C348.541 40.3899 349.159 42.6258 348.77 45.3985C348.368 48.2545 347.044 50.3304 344.798 51.6264C342.584 52.8986 339.646 53.2775 335.986 52.7631L322.885 50.9219ZM328.793 47.5109L336.28 48.5631C338.359 48.8553 339.996 48.6754 341.191 48.0233C342.385 47.3712 343.089 46.2826 343.304 44.7576C343.725 41.763 341.814 39.9676 337.572 39.3714L330.085 38.3193L328.793 47.5109Z" fill="#3B82F6"/>
<path d="M390.224 60.3857L394.316 31.2718L407.334 33.1014C410.606 33.5612 413.065 34.5713 414.712 36.1317C416.363 37.6644 417.018 39.6369 416.679 42.0492C416.344 44.4337 415.212 46.1549 413.282 47.2125C411.356 48.2425 408.965 48.5568 406.109 48.1554L407.068 46.7634C410.312 47.2193 412.73 48.2236 414.321 49.7761C415.912 51.3287 416.535 53.3389 416.188 55.8067C415.833 58.3299 414.626 60.1818 412.565 61.3626C410.509 62.5156 407.665 62.8368 404.032 62.3264L390.224 60.3857ZM396.132 56.9748L404.45 58.1439C406.336 58.4088 407.813 58.2629 408.88 57.7061C409.952 57.1216 410.591 56.0946 410.798 54.625C411.004 53.1554 410.669 52.0197 409.792 51.2179C408.919 50.3883 407.54 49.841 405.655 49.5761L397.336 48.407L396.132 56.9748ZM397.892 44.4558L405.128 45.4729C406.875 45.7184 408.255 45.5589 409.267 44.9943C410.284 44.4019 410.885 43.4403 411.072 42.1094C411.267 40.723 410.956 39.619 410.138 38.7972C409.321 37.9754 408.038 37.4417 406.292 37.1962L399.055 36.1792L397.892 44.4558Z" fill="#3B82F6"/>
<path d="M461.523 70.4062L465.614 41.2924L485.37 44.0689L484.686 48.638L469.006 46.4344L470.435 45.3204L466.846 71.1544L461.523 70.4062Z" fill="#3B82F6"/>
</svg>
