<svg width="497" height="1844" viewBox="0 0 497 1844" fill="none" xmlns="http://www.w3.org/2000/svg">
<ellipse cx="260.269" cy="102.964" rx="17.1429" ry="17.1429" transform="rotate(8 260.269 102.964)" fill="#F7D75C"/>
<path d="M330.218 97.9562C338.5 99.1201 344.27 106.777 343.107 115.059C341.943 123.341 334.285 129.111 326.003 127.948C317.721 126.783 311.951 119.126 313.115 110.844C314.279 102.562 321.936 96.7924 330.218 97.9562Z" stroke="#F7D75C" stroke-width="4"/>
<path d="M398.122 107.5C406.404 108.664 412.175 116.321 411.011 124.602C409.847 132.884 402.189 138.655 393.907 137.491C385.626 136.327 379.856 128.669 381.02 120.387C382.184 112.106 389.841 106.336 398.122 107.5Z" stroke="#F7D75C" stroke-width="4"/>
<path d="M466.027 117.043C474.308 118.207 480.079 125.864 478.915 134.146C477.751 142.428 470.093 148.198 461.811 147.034C453.53 145.87 447.76 138.213 448.924 129.931C450.088 121.649 457.745 115.879 466.027 117.043Z" stroke="#F7D75C" stroke-width="4"/>
<ellipse cx="134.279" cy="977.781" rx="17.1429" ry="17.1429" transform="rotate(8 134.279 977.781)" fill="#F7D75C"/>
<path d="M204.228 972.773C212.509 973.937 218.28 981.594 217.116 989.876C215.952 998.158 208.294 1003.93 200.013 1002.76C191.731 1001.6 185.961 993.943 187.125 985.661C188.289 977.379 195.946 971.609 204.228 972.773Z" stroke="#F7D75C" stroke-width="4"/>
<path d="M272.132 982.317C280.414 983.48 286.184 991.138 285.021 999.419C283.857 1007.7 276.199 1013.47 267.917 1012.31C259.635 1011.14 253.865 1003.49 255.029 995.204C256.193 986.923 263.85 981.153 272.132 982.317Z" stroke="#F7D75C" stroke-width="4"/>
<path d="M340.036 991.86C348.318 993.024 354.089 1000.68 352.925 1008.96C351.761 1017.24 344.103 1023.02 335.821 1021.85C327.54 1020.69 321.77 1013.03 322.934 1004.75C324.098 996.466 331.755 990.696 340.036 991.86Z" stroke="#F7D75C" stroke-width="4"/>
<ellipse cx="230.641" cy="320.962" rx="17.1429" ry="17.1429" transform="rotate(8 230.641 320.962)" fill="#F7D75C"/>
<path d="M300.59 315.954C308.872 317.118 314.642 324.775 313.479 333.057C312.315 341.339 304.657 347.11 296.375 345.946C288.093 344.782 282.323 337.124 283.487 328.842C284.651 320.56 292.308 314.79 300.59 315.954Z" stroke="#F7D75C" stroke-width="4"/>
<path d="M368.494 325.498C376.776 326.662 382.547 334.319 381.383 342.6C380.219 350.882 372.561 356.653 364.279 355.489C355.998 354.325 350.228 346.667 351.392 338.385C352.556 330.104 360.213 324.334 368.494 325.498Z" stroke="#F7D75C" stroke-width="4"/>
<path d="M436.399 335.041C444.68 336.205 450.451 343.862 449.287 352.144C448.123 360.426 440.465 366.196 432.184 365.033C423.902 363.868 418.132 356.211 419.296 347.929C420.46 339.647 428.117 333.877 436.399 335.041Z" stroke="#F7D75C" stroke-width="4"/>
<ellipse cx="104.651" cy="1195.78" rx="17.1429" ry="17.1429" transform="rotate(8 104.651 1195.78)" fill="#F7D75C"/>
<path d="M174.6 1190.77C182.881 1191.94 188.652 1199.59 187.488 1207.87C186.325 1216.16 178.667 1221.93 170.385 1220.76C162.103 1219.6 156.333 1211.94 157.497 1203.66C158.661 1195.38 166.318 1189.61 174.6 1190.77Z" stroke="#F7D75C" stroke-width="4"/>
<path d="M242.504 1200.31C250.786 1201.48 256.557 1209.14 255.393 1217.42C254.229 1225.7 246.571 1231.47 238.289 1230.31C230.007 1229.14 224.237 1221.48 225.401 1213.2C226.565 1204.92 234.222 1199.15 242.504 1200.31Z" stroke="#F7D75C" stroke-width="4"/>
<path d="M310.408 1209.86C318.69 1211.02 324.461 1218.68 323.297 1226.96C322.133 1235.24 314.475 1241.01 306.193 1239.85C297.912 1238.69 292.142 1231.03 293.306 1222.75C294.47 1214.46 302.127 1208.69 310.408 1209.86Z" stroke="#F7D75C" stroke-width="4"/>
<ellipse cx="200.023" cy="538.821" rx="17.1429" ry="17.1429" transform="rotate(8 200.023 538.821)" fill="#F7D75C"/>
<path d="M269.972 533.813C278.254 534.977 284.024 542.634 282.861 550.916C281.697 559.198 274.039 564.968 265.757 563.804C257.475 562.64 251.705 554.983 252.869 546.701C254.033 538.419 261.69 532.649 269.972 533.813Z" stroke="#F7D75C" stroke-width="4"/>
<path d="M337.876 543.357C346.158 544.52 351.929 552.178 350.765 560.459C349.601 568.741 341.943 574.512 333.661 573.348C325.379 572.184 319.61 564.526 320.773 556.244C321.938 547.963 329.595 542.193 337.876 543.357Z" stroke="#F7D75C" stroke-width="4"/>
<path d="M405.78 552.9C414.062 554.064 419.833 561.721 418.669 570.003C417.505 578.285 409.847 584.055 401.565 582.891C393.284 581.727 387.514 574.069 388.678 565.788C389.842 557.506 397.499 551.736 405.78 552.9Z" stroke="#F7D75C" stroke-width="4"/>
<ellipse cx="74.0331" cy="1413.64" rx="17.1429" ry="17.1429" transform="rotate(8 74.0331 1413.64)" fill="#F7D75C"/>
<path d="M143.982 1408.63C152.263 1409.79 158.034 1417.45 156.87 1425.73C155.706 1434.01 148.048 1439.78 139.767 1438.62C131.485 1437.46 125.715 1429.8 126.879 1421.52C128.043 1413.24 135.7 1407.47 143.982 1408.63Z" stroke="#F7D75C" stroke-width="4"/>
<path d="M211.886 1418.17C220.168 1419.34 225.938 1426.99 224.775 1435.28C223.611 1443.56 215.953 1449.33 207.671 1448.16C199.389 1447 193.619 1439.34 194.783 1431.06C195.947 1422.78 203.604 1417.01 211.886 1418.17Z" stroke="#F7D75C" stroke-width="4"/>
<path d="M279.79 1427.72C288.072 1428.88 293.843 1436.54 292.679 1444.82C291.515 1453.1 283.857 1458.87 275.575 1457.71C267.294 1456.54 261.524 1448.89 262.688 1440.6C263.852 1432.32 271.509 1426.55 279.79 1427.72Z" stroke="#F7D75C" stroke-width="4"/>
<ellipse cx="169.405" cy="756.68" rx="17.1429" ry="17.1429" transform="rotate(8 169.405 756.68)" fill="#F7D75C"/>
<path d="M239.354 751.672C247.635 752.836 253.406 760.493 252.242 768.775C251.078 777.057 243.42 782.827 235.139 781.663C226.857 780.499 221.087 772.841 222.251 764.56C223.415 756.278 231.072 750.508 239.354 751.672Z" stroke="#F7D75C" stroke-width="4"/>
<path d="M307.258 761.215C315.54 762.379 321.31 770.037 320.147 778.318C318.983 786.6 311.325 792.371 303.043 791.207C294.761 790.043 288.991 782.385 290.155 774.103C291.319 765.822 298.976 760.052 307.258 761.215Z" stroke="#F7D75C" stroke-width="4"/>
<path d="M375.162 770.759C383.444 771.923 389.215 779.58 388.051 787.862C386.887 796.143 379.229 801.914 370.947 800.75C362.666 799.586 356.896 791.928 358.06 783.647C359.224 775.365 366.881 769.595 375.162 770.759Z" stroke="#F7D75C" stroke-width="4"/>
<ellipse cx="43.4149" cy="1631.5" rx="17.1429" ry="17.1429" transform="rotate(8 43.4149 1631.5)" fill="#F7D75C"/>
<path d="M113.363 1626.49C121.645 1627.65 127.416 1635.31 126.252 1643.59C125.088 1651.87 117.43 1657.64 109.148 1656.48C100.867 1655.32 95.0969 1647.66 96.2608 1639.38C97.4248 1631.09 105.082 1625.32 113.363 1626.49Z" stroke="#F7D75C" stroke-width="4"/>
<path d="M181.268 1636.03C189.549 1637.2 195.32 1644.85 194.156 1653.13C192.993 1661.42 185.334 1667.19 177.053 1666.02C168.771 1664.86 163.001 1657.2 164.165 1648.92C165.329 1640.64 172.986 1634.87 181.268 1636.03Z" stroke="#F7D75C" stroke-width="4"/>
<path d="M249.172 1645.58C257.454 1646.74 263.225 1654.4 262.061 1662.68C260.897 1670.96 253.239 1676.73 244.957 1675.57C236.675 1674.4 230.905 1666.74 232.069 1658.46C233.233 1650.18 240.89 1644.41 249.172 1645.58Z" stroke="#F7D75C" stroke-width="4"/>
<path d="M254.706 142.544C262.988 143.708 268.759 151.365 267.595 159.647C266.431 167.929 258.773 173.699 250.491 172.535C242.21 171.371 236.44 163.714 237.604 155.432C238.768 147.15 246.425 141.38 254.706 142.544Z" stroke="#F7D75C" stroke-width="4"/>
<ellipse cx="320.44" cy="167.527" rx="17.1429" ry="17.1429" transform="rotate(8 320.44 167.527)" fill="#F7D75C"/>
<path d="M390.452 162.075C398.733 163.239 404.504 170.896 403.341 179.178C402.177 187.46 394.519 193.231 386.237 192.067C377.955 190.903 372.185 183.245 373.349 174.963C374.513 166.682 382.17 160.912 390.452 162.075Z" stroke="#F7D75C" stroke-width="4"/>
<path d="M458.356 171.619C466.638 172.783 472.409 180.44 471.245 188.722C470.081 197.003 462.423 202.774 454.141 201.61C445.859 200.446 440.09 192.788 441.253 184.507C442.417 176.225 450.075 170.455 458.356 171.619Z" stroke="#F7D75C" stroke-width="4"/>
<path d="M128.716 1017.36C136.998 1018.52 142.768 1026.18 141.605 1034.46C140.441 1042.75 132.783 1048.52 124.501 1047.35C116.219 1046.19 110.449 1038.53 111.613 1030.25C112.777 1021.97 120.434 1016.2 128.716 1017.36Z" stroke="#F7D75C" stroke-width="4"/>
<ellipse cx="194.45" cy="1042.34" rx="17.1429" ry="17.1429" transform="rotate(8 194.45 1042.34)" fill="#F7D75C"/>
<path d="M264.462 1036.89C272.743 1038.06 278.514 1045.71 277.35 1053.99C276.186 1062.28 268.528 1068.05 260.247 1066.88C251.965 1065.72 246.195 1058.06 247.359 1049.78C248.523 1041.5 256.18 1035.73 264.462 1036.89Z" stroke="#F7D75C" stroke-width="4"/>
<path d="M332.366 1046.44C340.648 1047.6 346.418 1055.26 345.255 1063.54C344.091 1071.82 336.433 1077.59 328.151 1076.43C319.869 1075.26 314.099 1067.61 315.263 1059.32C316.427 1051.04 324.084 1045.27 332.366 1046.44Z" stroke="#F7D75C" stroke-width="4"/>
<path d="M225.079 360.542C233.36 361.706 239.131 369.363 237.967 377.645C236.804 385.927 229.146 391.697 220.864 390.533C212.582 389.369 206.812 381.712 207.976 373.43C209.14 365.148 216.797 359.378 225.079 360.542Z" stroke="#F7D75C" stroke-width="4"/>
<ellipse cx="290.813" cy="385.525" rx="17.1429" ry="17.1429" transform="rotate(8 290.813 385.525)" fill="#F7D75C"/>
<path d="M360.824 380.073C369.106 381.237 374.877 388.894 373.713 397.176C372.549 405.458 364.891 411.229 356.609 410.065C348.328 408.901 342.558 401.243 343.722 392.961C344.886 384.68 352.543 378.91 360.824 380.073Z" stroke="#F7D75C" stroke-width="4"/>
<path d="M428.729 389.617C437.01 390.781 442.781 398.438 441.617 406.72C440.453 415.001 432.795 420.772 424.514 419.608C416.232 418.444 410.462 410.786 411.626 402.505C412.79 394.223 420.447 388.453 428.729 389.617Z" stroke="#F7D75C" stroke-width="4"/>
<path d="M99.0885 1235.36C107.37 1236.52 113.141 1244.18 111.977 1252.46C110.813 1260.74 103.155 1266.51 94.8735 1265.35C86.5919 1264.19 80.8219 1256.53 81.9859 1248.25C83.1499 1239.96 90.8069 1234.19 99.0885 1235.36Z" stroke="#F7D75C" stroke-width="4"/>
<ellipse cx="164.823" cy="1260.34" rx="17.1429" ry="17.1429" transform="rotate(8 164.823 1260.34)" fill="#F7D75C"/>
<path d="M234.834 1254.89C243.116 1256.05 248.887 1263.71 247.723 1271.99C246.559 1280.27 238.901 1286.05 230.619 1284.88C222.337 1283.72 216.568 1276.06 217.731 1267.78C218.896 1259.5 226.553 1253.73 234.834 1254.89Z" stroke="#F7D75C" stroke-width="4"/>
<path d="M302.738 1264.43C311.02 1265.6 316.791 1273.25 315.627 1281.54C314.463 1289.82 306.805 1295.59 298.523 1294.42C290.242 1293.26 284.472 1285.6 285.636 1277.32C286.8 1269.04 294.457 1263.27 302.738 1264.43Z" stroke="#F7D75C" stroke-width="4"/>
<path d="M194.461 578.401C202.742 579.565 208.513 587.223 207.349 595.504C206.185 603.786 198.527 609.557 190.246 608.393C181.964 607.229 176.194 599.571 177.358 591.289C178.522 583.008 186.179 577.238 194.461 578.401Z" stroke="#F7D75C" stroke-width="4"/>
<ellipse cx="260.195" cy="603.385" rx="17.1429" ry="17.1429" transform="rotate(8 260.195 603.385)" fill="#F7D75C"/>
<path d="M330.206 597.933C338.488 599.097 344.259 606.754 343.095 615.036C341.931 623.317 334.273 629.088 325.991 627.924C317.71 626.76 311.94 619.102 313.104 610.821C314.268 602.539 321.925 596.769 330.206 597.933Z" stroke="#F7D75C" stroke-width="4"/>
<path d="M398.11 607.476C406.392 608.64 412.163 616.297 410.999 624.579C409.835 632.861 402.177 638.632 393.895 637.468C385.614 636.304 379.844 628.646 381.008 620.364C382.172 612.082 389.829 606.312 398.11 607.476Z" stroke="#F7D75C" stroke-width="4"/>
<path d="M68.4704 1453.22C76.752 1454.38 82.5229 1462.04 81.3591 1470.32C80.1952 1478.6 72.5371 1484.37 64.2553 1483.21C55.9737 1482.05 50.2038 1474.39 51.3677 1466.11C52.5317 1457.82 60.1888 1452.05 68.4704 1453.22Z" stroke="#F7D75C" stroke-width="4"/>
<ellipse cx="134.204" cy="1478.2" rx="17.1429" ry="17.1429" transform="rotate(8 134.204 1478.2)" fill="#F7D75C"/>
<path d="M204.216 1472.75C212.498 1473.91 218.268 1481.57 217.105 1489.85C215.941 1498.13 208.283 1503.9 200.001 1502.74C191.719 1501.58 185.949 1493.92 187.113 1485.64C188.277 1477.36 195.934 1471.59 204.216 1472.75Z" stroke="#F7D75C" stroke-width="4"/>
<path d="M272.12 1482.29C280.402 1483.46 286.173 1491.11 285.009 1499.4C283.845 1507.68 276.187 1513.45 267.905 1512.28C259.624 1511.12 253.854 1503.46 255.018 1495.18C256.182 1486.9 263.839 1481.13 272.12 1482.29Z" stroke="#F7D75C" stroke-width="4"/>
<path d="M163.842 796.26C172.124 797.424 177.895 805.081 176.731 813.363C175.567 821.645 167.909 827.416 159.627 826.252C151.346 825.088 145.576 817.43 146.74 809.148C147.904 800.867 155.561 795.097 163.842 796.26Z" stroke="#F7D75C" stroke-width="4"/>
<ellipse cx="229.577" cy="821.244" rx="17.1429" ry="17.1429" transform="rotate(8 229.577 821.244)" fill="#F7D75C"/>
<path d="M299.588 815.792C307.87 816.956 313.641 824.613 312.477 832.894C311.313 841.176 303.655 846.947 295.373 845.783C287.091 844.619 281.321 836.961 282.485 828.679C283.649 820.398 291.306 814.628 299.588 815.792Z" stroke="#F7D75C" stroke-width="4"/>
<path d="M367.492 825.335C375.774 826.499 381.545 834.156 380.381 842.438C379.217 850.72 371.559 856.49 363.277 855.326C354.996 854.162 349.226 846.505 350.39 838.223C351.554 829.941 359.211 824.171 367.492 825.335Z" stroke="#F7D75C" stroke-width="4"/>
<path d="M37.8522 1671.08C46.1339 1672.24 51.9047 1679.9 50.7409 1688.18C49.577 1696.46 41.919 1702.23 33.6372 1701.07C25.3555 1699.9 19.5856 1692.25 20.7495 1683.96C21.9136 1675.68 29.5706 1669.91 37.8522 1671.08Z" stroke="#F7D75C" stroke-width="4"/>
<ellipse cx="103.586" cy="1696.06" rx="17.1429" ry="17.1429" transform="rotate(8 103.586 1696.06)" fill="#F7D75C"/>
<path d="M173.598 1690.61C181.879 1691.77 187.65 1699.43 186.487 1707.71C185.323 1715.99 177.665 1721.76 169.383 1720.6C161.101 1719.44 155.331 1711.78 156.495 1703.5C157.659 1695.21 165.316 1689.44 173.598 1690.61Z" stroke="#F7D75C" stroke-width="4"/>
<path d="M241.502 1700.15C249.784 1701.32 255.555 1708.97 254.391 1717.25C253.227 1725.54 245.569 1731.31 237.287 1730.14C229.005 1728.98 223.236 1721.32 224.399 1713.04C225.563 1704.76 233.221 1698.99 241.502 1700.15Z" stroke="#F7D75C" stroke-width="4"/>
<path d="M247.044 197.069C255.325 198.233 261.096 205.89 259.932 214.172C258.768 222.454 251.11 228.224 242.829 227.06C234.547 225.896 228.777 218.238 229.941 209.957C231.105 201.675 238.762 195.905 247.044 197.069Z" stroke="#F7D75C" stroke-width="4"/>
<ellipse cx="379.539" cy="231.518" rx="17.1429" ry="17.1429" transform="rotate(8 379.539 231.518)" fill="#F7D75C"/>
<path d="M314.308 207.058C322.589 208.222 328.36 215.879 327.196 224.161C326.033 232.443 318.375 238.214 310.093 237.05C301.811 235.886 296.041 228.228 297.205 219.946C298.369 211.664 306.026 205.894 314.308 207.058Z" stroke="#F7D75C" stroke-width="4"/>
<path d="M450.693 226.144C458.975 227.308 464.746 234.965 463.582 243.246C462.418 251.528 454.76 257.299 446.478 256.135C438.197 254.971 432.427 247.313 433.591 239.031C434.755 230.75 442.412 224.98 450.693 226.144Z" stroke="#F7D75C" stroke-width="4"/>
<path d="M121.053 1071.89C129.335 1073.05 135.106 1080.71 133.942 1088.99C132.778 1097.27 125.12 1103.04 116.838 1101.88C108.557 1100.71 102.787 1093.05 103.951 1084.77C105.115 1076.49 112.772 1070.72 121.053 1071.89Z" stroke="#F7D75C" stroke-width="4"/>
<ellipse cx="253.549" cy="1106.33" rx="17.1429" ry="17.1429" transform="rotate(8 253.549 1106.33)" fill="#F7D75C"/>
<path d="M188.318 1081.87C196.599 1083.04 202.37 1090.7 201.206 1098.98C200.042 1107.26 192.384 1113.03 184.103 1111.87C175.821 1110.7 170.051 1103.04 171.215 1094.76C172.379 1086.48 180.036 1080.71 188.318 1081.87Z" stroke="#F7D75C" stroke-width="4"/>
<path d="M324.703 1100.96C332.985 1102.12 338.756 1109.78 337.592 1118.06C336.428 1126.34 328.77 1132.12 320.488 1130.95C312.207 1129.79 306.437 1122.13 307.601 1113.85C308.765 1105.57 316.422 1099.8 324.703 1100.96Z" stroke="#F7D75C" stroke-width="4"/>
<path d="M217.416 415.067C225.697 416.231 231.468 423.888 230.304 432.17C229.14 440.452 221.482 446.222 213.201 445.058C204.919 443.894 199.149 436.236 200.313 427.955C201.477 419.673 209.134 413.903 217.416 415.067Z" stroke="#F7D75C" stroke-width="4"/>
<ellipse cx="349.911" cy="449.516" rx="17.1429" ry="17.1429" transform="rotate(8 349.911 449.516)" fill="#F7D75C"/>
<path d="M284.68 425.056C292.962 426.22 298.732 433.877 297.569 442.159C296.405 450.441 288.747 456.212 280.465 455.048C272.183 453.884 266.413 446.226 267.577 437.944C268.741 429.662 276.398 423.893 284.68 425.056Z" stroke="#F7D75C" stroke-width="4"/>
<path d="M421.066 444.142C429.347 445.306 435.118 452.963 433.954 461.245C432.79 469.526 425.132 475.297 416.851 474.133C408.569 472.969 402.799 465.311 403.963 457.029C405.127 448.748 412.784 442.978 421.066 444.142Z" stroke="#F7D75C" stroke-width="4"/>
<path d="M91.4254 1289.88C99.7071 1291.05 105.478 1298.7 104.314 1306.99C103.15 1315.27 95.4922 1321.04 87.2104 1319.87C78.9288 1318.71 73.1589 1311.05 74.3228 1302.77C75.4868 1294.49 83.1438 1288.72 91.4254 1289.88Z" stroke="#F7D75C" stroke-width="4"/>
<ellipse cx="223.921" cy="1324.33" rx="17.1429" ry="17.1429" transform="rotate(8 223.921 1324.33)" fill="#F7D75C"/>
<path d="M158.69 1299.87C166.971 1301.04 172.742 1308.69 171.578 1316.98C170.414 1325.26 162.756 1331.03 154.475 1329.86C146.193 1328.7 140.423 1321.04 141.587 1312.76C142.751 1304.48 150.408 1298.71 158.69 1299.87Z" stroke="#F7D75C" stroke-width="4"/>
<path d="M295.075 1318.96C303.357 1320.12 309.128 1327.78 307.964 1336.06C306.8 1344.34 299.142 1350.11 290.86 1348.95C282.579 1347.79 276.809 1340.13 277.973 1331.85C279.137 1323.56 286.794 1317.79 295.075 1318.96Z" stroke="#F7D75C" stroke-width="4"/>
<path d="M186.797 632.926C195.079 634.09 200.85 641.747 199.686 650.029C198.522 658.31 190.864 664.081 182.582 662.917C174.301 661.753 168.531 654.095 169.695 645.814C170.859 637.532 178.516 631.762 186.797 632.926Z" stroke="#F7D75C" stroke-width="4"/>
<ellipse cx="319.293" cy="667.375" rx="17.1429" ry="17.1429" transform="rotate(8 319.293 667.375)" fill="#F7D75C"/>
<path d="M254.062 642.915C262.343 644.079 268.114 651.736 266.95 660.018C265.786 668.3 258.128 674.07 249.847 672.907C241.565 671.742 235.795 664.085 236.959 655.803C238.123 647.521 245.78 641.751 254.062 642.915Z" stroke="#F7D75C" stroke-width="4"/>
<path d="M390.447 662.001C398.729 663.165 404.5 670.822 403.336 679.103C402.172 687.385 394.514 693.156 386.232 691.992C377.951 690.828 372.181 683.17 373.345 674.888C374.509 666.607 382.166 660.837 390.447 662.001Z" stroke="#F7D75C" stroke-width="4"/>
<path d="M60.8073 1507.74C69.089 1508.91 74.8598 1516.56 73.696 1524.85C72.5321 1533.13 64.874 1538.9 56.5923 1537.73C48.3106 1536.57 42.5407 1528.91 43.7046 1520.63C44.8687 1512.35 52.5257 1506.58 60.8073 1507.74Z" stroke="#F7D75C" stroke-width="4"/>
<ellipse cx="193.303" cy="1542.19" rx="17.1429" ry="17.1429" transform="rotate(8 193.303 1542.19)" fill="#F7D75C"/>
<path d="M128.071 1517.73C136.353 1518.9 142.124 1526.55 140.96 1534.83C139.796 1543.12 132.138 1548.89 123.856 1547.72C115.575 1546.56 109.805 1538.9 110.969 1530.62C112.133 1522.34 119.79 1516.57 128.071 1517.73Z" stroke="#F7D75C" stroke-width="4"/>
<path d="M264.457 1536.82C272.739 1537.98 278.51 1545.64 277.346 1553.92C276.182 1562.2 268.524 1567.97 260.242 1566.81C251.961 1565.64 246.191 1557.99 247.355 1549.7C248.519 1541.42 256.176 1535.65 264.457 1536.82Z" stroke="#F7D75C" stroke-width="4"/>
<path d="M156.179 850.785C164.461 851.949 170.232 859.606 169.068 867.888C167.904 876.17 160.246 881.941 151.964 880.777C143.683 879.613 137.913 871.955 139.077 863.673C140.241 855.392 147.898 849.622 156.179 850.785Z" stroke="#F7D75C" stroke-width="4"/>
<ellipse cx="288.675" cy="885.234" rx="17.1429" ry="17.1429" transform="rotate(8 288.675 885.234)" fill="#F7D75C"/>
<path d="M223.443 860.775C231.725 861.938 237.496 869.596 236.332 877.877C235.168 886.159 227.51 891.93 219.228 890.766C210.947 889.602 205.177 881.944 206.341 873.662C207.505 865.381 215.162 859.611 223.443 860.775Z" stroke="#F7D75C" stroke-width="4"/>
<path d="M359.829 879.86C368.111 881.024 373.882 888.681 372.718 896.963C371.554 905.245 363.896 911.015 355.614 909.851C347.333 908.687 341.563 901.029 342.727 892.748C343.891 884.466 351.548 878.696 359.829 879.86Z" stroke="#F7D75C" stroke-width="4"/>
<path d="M30.1891 1725.6C38.4708 1726.77 44.2416 1734.42 43.0778 1742.7C41.9139 1750.99 34.2559 1756.76 25.9741 1755.59C17.6925 1754.43 11.9225 1746.77 13.0864 1738.49C14.2505 1730.21 21.9075 1724.44 30.1891 1725.6Z" stroke="#F7D75C" stroke-width="4"/>
<ellipse cx="162.684" cy="1760.05" rx="17.1429" ry="17.1429" transform="rotate(8 162.684 1760.05)" fill="#F7D75C"/>
<path d="M97.4533 1735.59C105.735 1736.75 111.506 1744.41 110.342 1752.69C109.178 1760.98 101.52 1766.75 93.2382 1765.58C84.9566 1764.42 79.1867 1756.76 80.3506 1748.48C81.5147 1740.2 89.1717 1734.43 97.4533 1735.59Z" stroke="#F7D75C" stroke-width="4"/>
<path d="M233.839 1754.68C242.121 1755.84 247.892 1763.5 246.728 1771.78C245.564 1780.06 237.906 1785.83 229.624 1784.67C221.342 1783.5 215.572 1775.85 216.736 1767.56C217.9 1759.28 225.557 1753.51 233.839 1754.68Z" stroke="#F7D75C" stroke-width="4"/>
<path d="M239.452 251.45C247.762 252.617 253.552 260.3 252.384 268.61C251.216 276.919 243.533 282.709 235.223 281.542C226.914 280.373 221.124 272.69 222.292 264.381C223.46 256.071 231.143 250.282 239.452 251.45Z" stroke="#F7D75C" stroke-width="4"/>
<ellipse cx="439.953" cy="294.971" rx="17.1938" ry="17.1938" transform="rotate(8 439.953 294.971)" fill="#F7D75C"/>
<path d="M306.917 261.469C315.226 262.636 321.016 270.319 319.849 278.629C318.681 286.938 310.997 292.728 302.687 291.561C294.378 290.393 288.589 282.709 289.757 274.4C290.925 266.09 298.607 260.301 306.917 261.469Z" stroke="#F7D75C" stroke-width="4"/>
<path d="M374.529 270.433C382.838 271.601 388.628 279.284 387.461 287.594C386.293 295.903 378.609 301.693 370.3 300.525C361.99 299.357 356.201 291.674 357.369 283.364C358.537 275.055 366.22 269.266 374.529 270.433Z" stroke="#F7D75C" stroke-width="4"/>
<path d="M113.462 1126.27C121.772 1127.43 127.562 1135.12 126.394 1143.43C125.226 1151.74 117.543 1157.53 109.233 1156.36C100.923 1155.19 95.1342 1147.51 96.302 1139.2C97.4701 1130.89 105.153 1125.1 113.462 1126.27Z" stroke="#F7D75C" stroke-width="4"/>
<ellipse cx="313.963" cy="1169.79" rx="17.1938" ry="17.1938" transform="rotate(8 313.963 1169.79)" fill="#F7D75C"/>
<path d="M180.926 1136.29C189.236 1137.45 195.026 1145.14 193.858 1153.45C192.691 1161.75 185.007 1167.54 176.697 1166.38C168.388 1165.21 162.599 1157.53 163.766 1149.22C164.934 1140.91 172.617 1135.12 180.926 1136.29Z" stroke="#F7D75C" stroke-width="4"/>
<path d="M248.539 1145.25C256.848 1146.42 262.638 1154.1 261.471 1162.41C260.303 1170.72 252.619 1176.51 244.31 1175.34C236 1174.17 230.211 1166.49 231.379 1158.18C232.547 1149.87 240.229 1144.08 248.539 1145.25Z" stroke="#F7D75C" stroke-width="4"/>
<path d="M209.824 469.447C218.134 470.615 223.924 478.298 222.756 486.607C221.588 494.917 213.905 500.707 205.595 499.539C197.286 498.371 191.497 490.688 192.664 482.378C193.832 474.069 201.515 468.28 209.824 469.447Z" stroke="#F7D75C" stroke-width="4"/>
<ellipse cx="410.325" cy="512.969" rx="17.1938" ry="17.1938" transform="rotate(8 410.325 512.969)" fill="#F7D75C"/>
<path d="M277.289 479.466C285.598 480.634 291.388 488.317 290.221 496.626C289.053 504.936 281.369 510.726 273.06 509.558C264.75 508.39 258.961 500.707 260.129 492.397C261.297 484.088 268.979 478.299 277.289 479.466Z" stroke="#F7D75C" stroke-width="4"/>
<path d="M344.901 488.431C353.211 489.599 359.001 497.282 357.833 505.591C356.665 513.901 348.982 519.691 340.672 518.523C332.362 517.355 326.573 509.671 327.741 501.362C328.909 493.053 336.592 487.263 344.901 488.431Z" stroke="#F7D75C" stroke-width="4"/>
<path d="M83.8341 1344.26C92.1436 1345.43 97.9337 1353.11 96.7661 1361.42C95.5982 1369.73 87.9146 1375.52 79.605 1374.36C71.2956 1373.19 65.5063 1365.5 66.6741 1357.19C67.8421 1348.89 75.5248 1343.1 83.8341 1344.26Z" stroke="#F7D75C" stroke-width="4"/>
<ellipse cx="284.335" cy="1387.79" rx="17.1938" ry="17.1938" transform="rotate(8 284.335 1387.79)" fill="#F7D75C"/>
<path d="M151.298 1354.28C159.608 1355.45 165.398 1363.13 164.23 1371.44C163.063 1379.75 155.379 1385.54 147.069 1384.37C138.76 1383.21 132.971 1375.52 134.138 1367.21C135.306 1358.9 142.989 1353.12 151.298 1354.28Z" stroke="#F7D75C" stroke-width="4"/>
<path d="M218.911 1363.25C227.22 1364.42 233.01 1372.1 231.843 1380.41C230.675 1388.72 222.991 1394.51 214.682 1393.34C206.372 1392.17 200.583 1384.49 201.751 1376.18C202.919 1367.87 210.601 1362.08 218.911 1363.25Z" stroke="#F7D75C" stroke-width="4"/>
<path d="M179.206 687.306C187.516 688.474 193.306 696.157 192.138 704.466C190.97 712.776 183.287 718.566 174.977 717.398C166.668 716.23 160.878 708.546 162.046 700.237C163.214 691.928 170.897 686.138 179.206 687.306Z" stroke="#F7D75C" stroke-width="4"/>
<ellipse cx="379.707" cy="730.828" rx="17.1938" ry="17.1938" transform="rotate(8 379.707 730.828)" fill="#F7D75C"/>
<path d="M246.671 697.325C254.98 698.493 260.77 706.176 259.603 714.485C258.435 722.795 250.751 728.585 242.441 727.417C234.132 726.249 228.343 718.566 229.511 710.256C230.679 701.947 238.361 696.157 246.671 697.325Z" stroke="#F7D75C" stroke-width="4"/>
<path d="M314.283 706.29C322.592 707.458 328.382 715.141 327.215 723.45C326.047 731.76 318.363 737.55 310.054 736.382C301.744 735.214 295.955 727.53 297.123 719.221C298.291 710.912 305.974 705.122 314.283 706.29Z" stroke="#F7D75C" stroke-width="4"/>
<path d="M53.216 1562.12C61.5255 1563.29 67.3155 1570.97 66.1479 1579.28C64.9801 1587.59 57.2965 1593.38 48.9868 1592.21C40.6774 1591.05 34.8881 1583.36 36.0559 1575.05C37.224 1566.74 44.9066 1560.95 53.216 1562.12Z" stroke="#F7D75C" stroke-width="4"/>
<ellipse cx="253.717" cy="1605.64" rx="17.1938" ry="17.1938" transform="rotate(8 253.717 1605.64)" fill="#F7D75C"/>
<path d="M120.68 1572.14C128.99 1573.31 134.78 1580.99 133.612 1589.3C132.444 1597.61 124.761 1603.4 116.451 1602.23C108.142 1601.07 102.352 1593.38 103.52 1585.07C104.688 1576.76 112.371 1570.97 120.68 1572.14Z" stroke="#F7D75C" stroke-width="4"/>
<path d="M188.293 1581.11C196.602 1582.27 202.392 1589.96 201.225 1598.27C200.057 1606.58 192.373 1612.37 184.063 1611.2C175.754 1610.03 169.965 1602.35 171.133 1594.04C172.301 1585.73 179.983 1579.94 188.293 1581.11Z" stroke="#F7D75C" stroke-width="4"/>
<path d="M148.588 905.165C156.898 906.333 162.688 914.016 161.52 922.325C160.352 930.635 152.669 936.425 144.359 935.257C136.049 934.089 130.26 926.405 131.428 918.096C132.596 909.787 140.279 903.997 148.588 905.165Z" stroke="#F7D75C" stroke-width="4"/>
<ellipse cx="349.089" cy="948.686" rx="17.1938" ry="17.1938" transform="rotate(8 349.089 948.686)" fill="#F7D75C"/>
<path d="M216.052 915.184C224.362 916.352 230.152 924.035 228.984 932.344C227.816 940.654 220.133 946.444 211.823 945.276C203.514 944.108 197.725 936.424 198.892 928.115C200.06 919.806 207.743 914.016 216.052 915.184Z" stroke="#F7D75C" stroke-width="4"/>
<path d="M283.665 924.149C291.974 925.317 297.764 932.999 296.597 941.309C295.429 949.619 287.745 955.409 279.436 954.241C271.126 953.073 265.337 945.389 266.505 937.08C267.673 928.771 275.355 922.981 283.665 924.149Z" stroke="#F7D75C" stroke-width="4"/>
<path d="M22.5978 1779.98C30.9073 1781.15 36.6973 1788.83 35.5297 1797.14C34.3619 1805.45 26.6783 1811.24 18.3686 1810.07C10.0592 1808.91 4.26996 1801.22 5.43778 1792.91C6.60582 1784.6 14.2885 1778.81 22.5978 1779.98Z" stroke="#F7D75C" stroke-width="4"/>
<ellipse cx="223.099" cy="1823.5" rx="17.1938" ry="17.1938" transform="rotate(8 223.099 1823.5)" fill="#F7D75C"/>
<path d="M90.0621 1790C98.3716 1791.17 104.162 1798.85 102.994 1807.16C101.826 1815.47 94.1426 1821.26 85.833 1820.09C77.5236 1818.92 71.7343 1811.24 72.9021 1802.93C74.0702 1794.62 81.7528 1788.83 90.0621 1790Z" stroke="#F7D75C" stroke-width="4"/>
<path d="M157.674 1798.97C165.984 1800.13 171.774 1807.82 170.606 1816.13C169.439 1824.43 161.755 1830.22 153.445 1829.06C145.136 1827.89 139.347 1820.21 140.514 1811.9C141.682 1803.59 149.365 1797.8 157.674 1798.97Z" stroke="#F7D75C" stroke-width="4"/>
<path d="M253.028 41.2122L270.221 13.9396L275.545 14.6878L284.596 45.6488L278.939 44.8538L271.357 17.0256L273.519 17.3296L258.601 41.9955L253.028 41.2122ZM260.006 35.322L262.058 31.2842L277.779 33.4938L278.639 37.9407L260.006 35.322Z" fill="#F7D75C"/>
<path d="M325.1 51.3413L329.192 22.2274L351.859 25.4131L351.233 29.8633L333.89 27.4259L332.884 34.5796L341.494 35.7895C344.988 36.2805 347.532 37.3875 349.128 39.1103C350.755 40.8093 351.374 43.0452 350.985 45.818C350.583 48.6739 349.259 50.7499 347.013 52.0459C344.799 53.318 341.861 53.6969 338.201 53.1826L325.1 51.3413ZM331.008 47.9304L338.495 48.9825C340.574 49.2748 342.211 49.0948 343.405 48.4427C344.6 47.7906 345.304 46.702 345.519 45.177C345.939 42.1825 344.029 40.3871 339.786 39.7908L332.3 38.7387L331.008 47.9304Z" fill="#F7D75C"/>
<path d="M392.439 60.8052L396.53 31.6913L409.549 33.5208C412.82 33.9807 415.28 34.9908 416.927 36.5512C418.577 38.0838 419.233 40.0563 418.894 42.4686C418.559 44.8532 417.427 46.5743 415.497 47.632C413.57 48.6619 411.179 48.9762 408.324 48.5749L409.283 47.1828C412.527 47.6387 414.944 48.643 416.536 50.1956C418.127 51.7482 418.75 53.7583 418.403 56.2261C418.048 58.7493 416.841 60.6013 414.78 61.782C412.724 62.935 409.879 63.2563 406.247 62.7458L392.439 60.8052ZM398.347 57.3942L406.665 58.5633C408.551 58.8283 410.027 58.6824 411.095 58.1256C412.167 57.541 412.806 56.514 413.013 55.0444C413.219 53.5749 412.884 52.4392 412.007 51.6373C411.134 50.8078 409.755 50.2605 407.869 49.9955L399.551 48.8264L398.347 57.3942ZM400.106 44.8753L407.343 45.8923C409.09 46.1378 410.47 45.9783 411.482 45.4137C412.499 44.8214 413.1 43.8598 413.287 42.5288C413.482 41.1425 413.171 40.0384 412.353 39.2166C411.536 38.3948 410.253 37.8612 408.507 37.6157L401.27 36.5986L400.106 44.8753Z" fill="#F7D75C"/>
<path d="M463.738 70.8257L467.83 41.7118L487.586 44.4883L486.901 49.0575L471.221 46.8538L472.65 45.7398L469.062 71.5739L463.738 70.8257Z" fill="#F7D75C"/>
</svg>
