<svg width="760" height="810" viewBox="0 0 760 810" fill="none" xmlns="http://www.w3.org/2000/svg">
<mask id="mask0_55_182" style="mask-type:alpha" maskUnits="userSpaceOnUse" x="0" y="0" width="380" height="810">
<rect width="380" height="810" fill="#022684"/>
</mask>
<g mask="url(#mask0_55_182)">
<rect x="176.591" y="-452" width="17.1429" height="1371.43" transform="rotate(25 176.591 -452)" fill="#022684"/>
<rect x="207.664" y="-437.51" width="17.1429" height="1371.43" transform="rotate(25 207.664 -437.51)" fill="#022684"/>
<rect x="238.737" y="-423.02" width="17.1429" height="1371.43" transform="rotate(25 238.737 -423.02)" fill="#022684"/>
<rect x="269.812" y="-408.531" width="17.1429" height="1371.43" transform="rotate(25 269.812 -408.531)" fill="#022684"/>
<rect x="300.885" y="-394.041" width="17.1429" height="1371.43" transform="rotate(25 300.885 -394.041)" fill="#022684"/>
<rect x="331.958" y="-379.551" width="17.1429" height="1371.43" transform="rotate(25 331.958 -379.551)" fill="#022684"/>
<rect x="363.032" y="-365.061" width="17.1429" height="1371.43" transform="rotate(25 363.032 -365.061)" fill="#022684"/>
<rect x="394.104" y="-350.571" width="17.1429" height="1371.43" transform="rotate(25 394.104 -350.571)" fill="#022684"/>
<rect x="425.178" y="-336.082" width="17.1429" height="1371.43" transform="rotate(25 425.178 -336.082)" fill="#022684"/>
<rect x="456.252" y="-321.592" width="17.1429" height="1371.43" transform="rotate(25 456.252 -321.592)" fill="#022684"/>
<rect x="487.324" y="-307.102" width="17.1429" height="1371.43" transform="rotate(25 487.324 -307.102)" fill="#022684"/>
<rect x="518.397" y="-292.612" width="17.1429" height="1371.43" transform="rotate(25 518.397 -292.612)" fill="#022684"/>
<rect x="549.472" y="-278.122" width="17.1429" height="1371.43" transform="rotate(25 549.472 -278.122)" fill="#022684"/>
<rect x="580.545" y="-263.633" width="17.1429" height="1371.43" transform="rotate(25 580.545 -263.633)" fill="#022684"/>
<rect x="611.618" y="-249.143" width="17.1429" height="1371.43" transform="rotate(25 611.618 -249.143)" fill="#022684"/>
<rect x="642.691" y="-234.653" width="17.1429" height="1371.43" transform="rotate(25 642.691 -234.653)" fill="#022684"/>
<rect x="735.912" y="-191.184" width="17.1429" height="1371.43" transform="rotate(25 735.912 -191.184)" fill="#022684"/>
<rect x="673.766" y="-220.163" width="17.1429" height="1371.43" transform="rotate(25 673.766 -220.163)" fill="#022684"/>
<rect x="766.986" y="-176.694" width="17.1429" height="1371.43" transform="rotate(25 766.986 -176.694)" fill="#022684"/>
<rect x="704.839" y="-205.674" width="17.1429" height="1371.43" transform="rotate(25 704.839 -205.674)" fill="#022684"/>
<rect x="798.06" y="-162.204" width="17.1429" height="1371.43" transform="rotate(25 798.06 -162.204)" fill="#022684"/>
<rect x="192.128" y="-444.755" width="17.1429" height="1371.43" transform="rotate(25 192.128 -444.755)" fill="#062E94"/>
<rect x="223.201" y="-430.265" width="17.1429" height="1371.43" transform="rotate(25 223.201 -430.265)" fill="#062E94"/>
<rect x="254.274" y="-415.775" width="17.1429" height="1371.43" transform="rotate(25 254.274 -415.775)" fill="#062E94"/>
<rect x="285.348" y="-401.286" width="17.1429" height="1371.43" transform="rotate(25 285.348 -401.286)" fill="#062E94"/>
<rect x="316.422" y="-386.796" width="17.1429" height="1371.43" transform="rotate(25 316.422 -386.796)" fill="#062E94"/>
<rect x="347.495" y="-372.306" width="17.1429" height="1371.43" transform="rotate(25 347.495 -372.306)" fill="#062E94"/>
<rect x="378.568" y="-357.816" width="17.1429" height="1371.43" transform="rotate(25 378.568 -357.816)" fill="#062E94"/>
<rect x="409.642" y="-343.327" width="17.1429" height="1371.43" transform="rotate(25 409.642 -343.327)" fill="#062E94"/>
<rect x="440.715" y="-328.836" width="17.1429" height="1371.43" transform="rotate(25 440.715 -328.836)" fill="#062E94"/>
<rect x="471.788" y="-314.347" width="17.1429" height="1371.43" transform="rotate(25 471.788 -314.347)" fill="#062E94"/>
<rect x="502.861" y="-299.857" width="17.1429" height="1371.43" transform="rotate(25 502.861 -299.857)" fill="#062E94"/>
<rect x="533.935" y="-285.367" width="17.1429" height="1371.43" transform="rotate(25 533.935 -285.367)" fill="#062E94"/>
<rect x="565.008" y="-270.877" width="17.1429" height="1371.43" transform="rotate(25 565.008 -270.877)" fill="#062E94"/>
<rect x="596.082" y="-256.388" width="17.1429" height="1371.43" transform="rotate(25 596.082 -256.388)" fill="#062E94"/>
<rect x="627.155" y="-241.898" width="17.1429" height="1371.43" transform="rotate(25 627.155 -241.898)" fill="#062E94"/>
<rect x="658.229" y="-227.408" width="17.1429" height="1371.43" transform="rotate(25 658.229 -227.408)" fill="#062E94"/>
<rect x="751.449" y="-183.939" width="17.1429" height="1371.43" transform="rotate(25 751.449 -183.939)" fill="#062E94"/>
<rect x="689.302" y="-212.919" width="17.1429" height="1371.43" transform="rotate(25 689.302 -212.919)" fill="#062E94"/>
<rect x="782.522" y="-169.449" width="17.1429" height="1371.43" transform="rotate(25 782.522 -169.449)" fill="#062E94"/>
<rect x="720.376" y="-198.429" width="17.1429" height="1371.43" transform="rotate(25 720.376 -198.429)" fill="#062E94"/>
<rect x="813.596" y="-154.959" width="17.1429" height="1371.43" transform="rotate(25 813.596 -154.959)" fill="#062E94"/>
</g>
<mask id="mask1_55_182" style="mask-type:alpha" maskUnits="userSpaceOnUse" x="380" y="0" width="380" height="810">
<rect x="380" width="380" height="810" fill="#022684"/>
</mask>
<g mask="url(#mask1_55_182)">
<rect x="556.591" y="-452" width="17.1429" height="1371.43" transform="rotate(25 556.591 -452)" fill="#022684"/>
<rect x="587.664" y="-437.51" width="17.1429" height="1371.43" transform="rotate(25 587.664 -437.51)" fill="#022684"/>
<rect x="618.737" y="-423.02" width="17.1429" height="1371.43" transform="rotate(25 618.737 -423.02)" fill="#022684"/>
<rect x="649.812" y="-408.531" width="17.1429" height="1371.43" transform="rotate(25 649.812 -408.531)" fill="#022684"/>
<rect x="680.885" y="-394.041" width="17.1429" height="1371.43" transform="rotate(25 680.885 -394.041)" fill="#022684"/>
<rect x="711.958" y="-379.551" width="17.1429" height="1371.43" transform="rotate(25 711.958 -379.551)" fill="#022684"/>
<rect x="743.032" y="-365.061" width="17.1429" height="1371.43" transform="rotate(25 743.032 -365.061)" fill="#022684"/>
<rect x="774.104" y="-350.571" width="17.1429" height="1371.43" transform="rotate(25 774.104 -350.571)" fill="#022684"/>
<rect x="805.178" y="-336.082" width="17.1429" height="1371.43" transform="rotate(25 805.178 -336.082)" fill="#022684"/>
<rect x="836.252" y="-321.592" width="17.1429" height="1371.43" transform="rotate(25 836.252 -321.592)" fill="#022684"/>
<rect x="867.324" y="-307.102" width="17.1429" height="1371.43" transform="rotate(25 867.324 -307.102)" fill="#022684"/>
<rect x="898.397" y="-292.612" width="17.1429" height="1371.43" transform="rotate(25 898.397 -292.612)" fill="#022684"/>
<rect x="929.472" y="-278.122" width="17.1429" height="1371.43" transform="rotate(25 929.472 -278.122)" fill="#022684"/>
<rect x="960.545" y="-263.633" width="17.1429" height="1371.43" transform="rotate(25 960.545 -263.633)" fill="#022684"/>
<rect x="991.618" y="-249.143" width="17.1429" height="1371.43" transform="rotate(25 991.618 -249.143)" fill="#022684"/>
<rect x="1022.69" y="-234.653" width="17.1429" height="1371.43" transform="rotate(25 1022.69 -234.653)" fill="#022684"/>
<rect x="1115.91" y="-191.184" width="17.1429" height="1371.43" transform="rotate(25 1115.91 -191.184)" fill="#022684"/>
<rect x="1053.77" y="-220.163" width="17.1429" height="1371.43" transform="rotate(25 1053.77 -220.163)" fill="#022684"/>
<rect x="1146.99" y="-176.694" width="17.1429" height="1371.43" transform="rotate(25 1146.99 -176.694)" fill="#022684"/>
<rect x="1084.84" y="-205.674" width="17.1429" height="1371.43" transform="rotate(25 1084.84 -205.674)" fill="#022684"/>
<rect x="1178.06" y="-162.204" width="17.1429" height="1371.43" transform="rotate(25 1178.06 -162.204)" fill="#022684"/>
<rect x="572.128" y="-444.755" width="17.1429" height="1371.43" transform="rotate(25 572.128 -444.755)" fill="#062E94"/>
<rect x="603.201" y="-430.265" width="17.1429" height="1371.43" transform="rotate(25 603.201 -430.265)" fill="#062E94"/>
<rect x="634.274" y="-415.775" width="17.1429" height="1371.43" transform="rotate(25 634.274 -415.775)" fill="#062E94"/>
<rect x="665.348" y="-401.286" width="17.1429" height="1371.43" transform="rotate(25 665.348 -401.286)" fill="#062E94"/>
<rect x="696.422" y="-386.796" width="17.1429" height="1371.43" transform="rotate(25 696.422 -386.796)" fill="#062E94"/>
<rect x="727.495" y="-372.306" width="17.1429" height="1371.43" transform="rotate(25 727.495 -372.306)" fill="#062E94"/>
<rect x="758.568" y="-357.816" width="17.1429" height="1371.43" transform="rotate(25 758.568 -357.816)" fill="#062E94"/>
<rect x="789.642" y="-343.327" width="17.1429" height="1371.43" transform="rotate(25 789.642 -343.327)" fill="#062E94"/>
<rect x="820.715" y="-328.836" width="17.1429" height="1371.43" transform="rotate(25 820.715 -328.836)" fill="#062E94"/>
<rect x="851.788" y="-314.347" width="17.1429" height="1371.43" transform="rotate(25 851.788 -314.347)" fill="#062E94"/>
<rect x="882.861" y="-299.857" width="17.1429" height="1371.43" transform="rotate(25 882.861 -299.857)" fill="#062E94"/>
<rect x="913.935" y="-285.367" width="17.1429" height="1371.43" transform="rotate(25 913.935 -285.367)" fill="#062E94"/>
<rect x="945.008" y="-270.877" width="17.1429" height="1371.43" transform="rotate(25 945.008 -270.877)" fill="#062E94"/>
<rect x="976.082" y="-256.388" width="17.1429" height="1371.43" transform="rotate(25 976.082 -256.388)" fill="#062E94"/>
<rect x="1007.16" y="-241.898" width="17.1429" height="1371.43" transform="rotate(25 1007.16 -241.898)" fill="#062E94"/>
<rect x="1038.23" y="-227.408" width="17.1429" height="1371.43" transform="rotate(25 1038.23 -227.408)" fill="#062E94"/>
<rect x="1131.45" y="-183.939" width="17.1429" height="1371.43" transform="rotate(25 1131.45 -183.939)" fill="#062E94"/>
<rect x="1069.3" y="-212.919" width="17.1429" height="1371.43" transform="rotate(25 1069.3 -212.919)" fill="#062E94"/>
<rect x="1162.52" y="-169.449" width="17.1429" height="1371.43" transform="rotate(25 1162.52 -169.449)" fill="#062E94"/>
<rect x="1100.38" y="-198.429" width="17.1429" height="1371.43" transform="rotate(25 1100.38 -198.429)" fill="#062E94"/>
<rect x="1193.6" y="-154.959" width="17.1429" height="1371.43" transform="rotate(25 1193.6 -154.959)" fill="#062E94"/>
</g>
</svg>
